<svg xmlns="http://www.w3.org/2000/svg" width="313.408" height="386.093" viewBox="0 0 313.408 386.093">
  <g id="Grupo_2139" data-name="Grupo 2139" transform="translate(-786.917 74.409)" opacity="0.074">
    <g id="Grupo_2138" data-name="Grupo 2138" transform="translate(786.917 -74.409)">
      <g id="Grupo_2133" data-name="Grupo 2133" transform="translate(0)">
        <path id="Trazado_8528" data-name="Trazado 8528" d="M173.393,399.593a11.391,11.391,0,0,1-5.079-1.2C162.126,395.3,16.7,320.847,16.7,170.208V73.31A11.349,11.349,0,0,1,28.056,61.954,297.38,297.38,0,0,0,167.1,15.413a11.327,11.327,0,0,1,12.6,0,297.513,297.513,0,0,0,139.06,46.542A11.349,11.349,0,0,1,330.109,73.31v96.9c0,150.638-145.449,225.092-151.636,228.187A11.39,11.39,0,0,1,173.393,399.593ZM39.411,84.311v85.9c0,121.628,108.9,190.793,133.982,205.087,25.041-14.339,134-83.724,134-205.087v-85.9a319.084,319.084,0,0,1-134-46.032A318.964,318.964,0,0,1,39.412,84.311Z" transform="translate(-16.7 -13.5)" fill="#fff"/>
        <path id="Trazado_8529" data-name="Trazado 8529" d="M79.693,138.442h0a11.348,11.348,0,0,1-8.03-3.328L23.226,86.666A11.354,11.354,0,1,1,39.284,70.609L79.693,111.03,168.564,22.16a11.354,11.354,0,1,1,16.057,16.057l-96.9,96.9A11.348,11.348,0,0,1,79.693,138.442Z" transform="translate(52.774 102.302)" fill="#fff"/>
      </g>
    </g>
  </g>
</svg>
