<svg xmlns="http://www.w3.org/2000/svg" xmlns:xlink="http://www.w3.org/1999/xlink" width="195" height="149" viewBox="0 0 195 149">
  <defs>
    <filter id="Rect치ngulo_762" x="0" y="0" width="195" height="149" filterUnits="userSpaceOnUse">
      <feOffset dx="-11" dy="-1" input="SourceAlpha"/>
      <feGaussianBlur stdDeviation="17" result="blur"/>
      <feFlood flood-opacity="0.071"/>
      <feComposite operator="in" in2="blur"/>
      <feComposite in="SourceGraphic"/>
    </filter>
  </defs>
  <g id="Grupo_2031" data-name="Grupo 2031" transform="translate(62 52)">
    <g id="Grupo_1994" data-name="Grupo 1994" transform="translate(0 0)">
      <g transform="matrix(1, 0, 0, 1, -62, -52)" filter="url(#Rect치ngulo_762)">
        <rect id="Rect치ngulo_762-2" data-name="Rect치ngulo 762" width="93" height="47" rx="16" transform="translate(62 52)" fill="#fff"/>
      </g>
    </g>
    <path id="Better_Business_Bureau_BBB" data-name="Better Business Bureau BBB" d="M201.077,60.374H188.654l-.452,1.484h3.31l.633,2.048h5.442l.629-2.048h3.31Zm-10.4-8.343a2.936,2.936,0,0,0,.653,4.1l2.972,2.16a.734.734,0,0,1,.164,1.027l.447.324,1.571-2.17a2.929,2.929,0,0,0-.655-4.1l-2.972-2.16a.734.734,0,0,1-.294-.479.717.717,0,0,1-.01-.118.735.735,0,0,1,.14-.43l-.447-.325Zm1.791-8.683a4.223,4.223,0,0,0-.811,2.492,4.422,4.422,0,0,0,.053.678,4.233,4.233,0,0,0,1.707,2.776L197.158,52a2.274,2.274,0,0,1,.915,1.489,2.371,2.371,0,0,1,.029.362,2.264,2.264,0,0,1-.44,1.336l.361.263,2.945-4.069a4.257,4.257,0,0,0-.948-5.947l-4.512-3.28a1.32,1.32,0,0,1-.29-1.835l-.361-.26Zm-7.632,21.8h3.4a2.65,2.65,0,0,1,1.916.649,1.68,1.68,0,0,1,.5,1.247v.017a1.7,1.7,0,0,1-.967,1.583,1.793,1.793,0,0,1,1.372,1.8v.021c0,1.34-1.089,2.01-2.744,2.01H184.84Zm3.058,2.964c.712,0,1.163-.23,1.163-.774v-.021c0-.482-.377-.754-1.056-.754h-1.595v1.55H187.9Zm.429,2.954c.712,0,1.143-.252,1.143-.792v-.021c0-.493-.366-.792-1.194-.792h-1.865v1.612Zm3.445-5.918h3.4a2.65,2.65,0,0,1,1.916.649,1.685,1.685,0,0,1,.5,1.247v.017a1.7,1.7,0,0,1-.967,1.583,1.792,1.792,0,0,1,1.372,1.8v.021c0,1.34-1.089,2.01-2.744,2.01h-3.481Zm3.057,2.964c.712,0,1.163-.23,1.163-.774v-.021c0-.482-.377-.754-1.056-.754h-1.593v1.55h1.487Zm.43,2.954c.712,0,1.143-.252,1.143-.792v-.021c0-.493-.366-.792-1.193-.792h-1.865v1.612Zm3.445-5.918h3.4a2.65,2.65,0,0,1,1.916.649,1.684,1.684,0,0,1,.5,1.247v.017a1.7,1.7,0,0,1-.967,1.583,1.792,1.792,0,0,1,1.372,1.8v.021c0,1.34-1.09,2.01-2.744,2.01H198.7Zm3.058,2.964c.712,0,1.163-.23,1.163-.774v-.021c0-.482-.377-.754-1.056-.754h-1.592v1.55h1.485Zm.429,2.954c.712,0,1.143-.252,1.143-.792v-.021c0-.493-.366-.792-1.194-.792h-1.864v1.612Zm3.084-.119v-.012a1.5,1.5,0,0,1,2.991,0v.012a1.5,1.5,0,0,1-2.991,0Zm2.814-.009v-.008a1.32,1.32,0,0,0-2.639,0v.012a1.32,1.32,0,0,0,2.639,0Zm-1.935-.837h.7a.671.671,0,0,1,.491.176.48.48,0,0,1,.132.347v.008a.5.5,0,0,1-.342.491l.388.569h-.409l-.338-.512H206.5v.512h-.352Zm.7.775c.176,0,.273-.095.273-.227v-.008c0-.152-.107-.231-.28-.231h-.342v.466Z" transform="translate(-150.054 -32.767)" fill="#213a7a"/>
  </g>
</svg>
